<svg xmlns="http://www.w3.org/2000/svg" xmlns:xlink="http://www.w3.org/1999/xlink" width="1366" zoomAndPan="magnify" viewBox="0 0 1024.5 576" height="768" preserveAspectRatio="xMidYMid meet" version="1.0"><defs><clipPath id="8ab2ea48f9"><path d="M 0 0.140625 L 1024 0.140625 L 1024 575.859375 L 0 575.859375 Z M 0 0.140625 " clip-rule="nonzero"/></clipPath><clipPath id="99819aa5ff"><path d="M 425.640625 201.640625 L 598.359375 201.640625 L 598.359375 374.359375 L 425.640625 374.359375 Z M 425.640625 201.640625 " clip-rule="nonzero"/></clipPath><clipPath id="64a84944f9"><path d="M 452.628906 201.640625 L 571.371094 201.640625 C 586.277344 201.640625 598.359375 213.726562 598.359375 228.628906 L 598.359375 347.371094 C 598.359375 362.277344 586.277344 374.359375 571.371094 374.359375 L 452.628906 374.359375 C 437.726562 374.359375 425.640625 362.277344 425.640625 347.371094 L 425.640625 228.628906 C 425.640625 213.726562 437.726562 201.640625 452.628906 201.640625 Z M 452.628906 201.640625 " clip-rule="nonzero"/></clipPath><clipPath id="e0e7f568be"><path d="M 446.292969 217.964844 L 619.007812 217.964844 L 619.007812 390.679688 L 446.292969 390.679688 Z M 446.292969 217.964844 " clip-rule="nonzero"/></clipPath></defs><g clip-path="url(#8ab2ea48f9)"><path fill="#ffffff" d="M 0 0.140625 L 1024 0.140625 L 1024 575.859375 L 0 575.859375 Z M 0 0.140625 " fill-opacity="1" fill-rule="nonzero"/><path fill="#ffffff" d="M 0 0.140625 L 1024 0.140625 L 1024 575.859375 L 0 575.859375 Z M 0 0.140625 " fill-opacity="1" fill-rule="nonzero"/></g><g clip-path="url(#99819aa5ff)"><g clip-path="url(#64a84944f9)"><path fill="#919191" d="M 425.640625 201.640625 L 598.359375 201.640625 L 598.359375 374.359375 L 425.640625 374.359375 Z M 425.640625 201.640625 " fill-opacity="1" fill-rule="nonzero"/></g></g><g clip-path="url(#e0e7f568be)"><path fill="#919191" d="M 446.292969 217.964844 L 619.007812 217.964844 L 619.007812 390.679688 L 446.292969 390.679688 Z M 446.292969 217.964844 " fill-opacity="1" fill-rule="nonzero"/></g></svg>